<?xml version="1.0" standalone="no"?>
<!DOCTYPE svg PUBLIC "-//W3C//DTD SVG 20010904//EN"
 "http://www.w3.org/TR/2001/REC-SVG-20010904/DTD/svg10.dtd">
<svg version="1.0" xmlns="http://www.w3.org/2000/svg"
 width="674.000000pt" height="674.000000pt" viewBox="0 0 674.000000 674.000000"
 preserveAspectRatio="xMidYMid meet">
<metadata>
Created by potrace 1.11, written by Peter Selinger 2001-2013
</metadata>
<g transform="translate(0.000000,674.000000) scale(0.100000,-0.100000)"
fill="#000000" stroke="none">
<path d="M1238 6235 c-2 -2 -23 -6 -48 -10 -25 -3 -72 -13 -105 -22 -33 -8
-67 -16 -75 -18 -31 -7 -216 -87 -231 -101 -8 -8 -19 -14 -23 -14 -7 0 -107
-66 -150 -99 -27 -21 -175 -169 -202 -202 -68 -84 -164 -251 -179 -311 -4 -16
-12 -28 -18 -28 -6 0 -8 -2 -5 -5 3 -3 -3 -34 -14 -68 -46 -148 -65 -343 -46
-482 5 -33 10 -74 13 -92 6 -45 23 -109 47 -173 11 -30 21 -60 22 -66 1 -6 17
-42 36 -80 29 -59 53 -99 115 -192 38 -57 147 -168 225 -231 85 -68 78 -62
133 -95 218 -126 404 -178 649 -180 60 -1 108 -3 107 -6 0 -3 -9 -18 -19 -35
-28 -45 -87 -165 -121 -247 -80 -190 -133 -405 -156 -633 -12 -121 -6 -381 11
-460 2 -11 7 -42 10 -70 9 -70 42 -204 73 -305 15 -47 28 -87 29 -90 27 -106
264 -530 307 -548 4 -2 7 -8 7 -13 0 -5 8 -17 18 -27 9 -10 36 -41 59 -68 54
-65 168 -180 222 -224 24 -19 50 -41 58 -49 26 -25 156 -119 183 -133 14 -7
27 -15 30 -18 28 -28 265 -148 370 -188 30 -11 64 -24 75 -28 11 -4 22 -8 25
-9 3 -1 37 -11 75 -23 69 -21 226 -56 295 -66 182 -26 528 -27 661 -1 13 3 40
8 59 11 19 3 64 12 99 21 36 8 74 17 84 19 44 8 229 72 307 106 66 29 174 81
180 88 3 3 25 16 50 29 41 22 176 109 204 131 6 6 43 35 81 66 361 288 625
703 737 1159 5 22 11 52 13 67 2 15 6 35 9 45 12 39 20 98 31 228 7 78 7 263
0 335 -3 36 -8 85 -10 110 -4 47 -32 194 -42 220 -3 8 -8 26 -10 39 -5 30 -68
221 -89 270 -8 20 -42 89 -73 153 l-59 117 82 0 c104 -1 193 9 286 31 464 109
830 475 935 933 47 208 37 456 -27 657 -42 130 -125 287 -209 395 -46 59 -187
192 -252 238 -73 52 -229 137 -252 137 -8 0 -15 4 -15 10 0 5 -3 9 -7 8 -7 -2
-95 23 -143 40 -27 9 -78 19 -155 29 -94 13 -301 7 -385 -10 -65 -14 -91 -20
-135 -33 -27 -9 -59 -19 -70 -24 -87 -35 -117 -49 -168 -77 -33 -18 -63 -33
-68 -33 -5 0 -9 -4 -9 -10 0 -5 -6 -10 -14 -10 -8 0 -16 -3 -18 -8 -1 -4 -23
-22 -47 -39 -98 -72 -226 -209 -296 -319 -67 -105 -143 -279 -159 -365 -3 -13
-5 -26 -6 -29 -3 -6 -4 -11 -14 -75 -5 -27 -10 -59 -12 -70 -5 -26 -5 -222 0
-260 10 -72 16 -112 22 -137 6 -28 -12 -39 -30 -20 -4 4 -11 7 -14 7 -4 1 -23
6 -43 13 -20 7 -45 15 -55 17 -10 2 -44 11 -74 19 -30 8 -66 17 -80 20 -14 2
-47 9 -75 14 -78 16 -262 35 -302 33 -17 -1 -33 -1 -140 2 -51 1 -93 0 -93 -3
0 -3 -15 -5 -33 -6 -43 -1 -145 -12 -182 -19 -132 -26 -184 -37 -210 -45 -16
-5 -67 -21 -112 -35 -45 -14 -84 -25 -86 -25 -3 0 -1 17 4 38 5 20 11 57 15
82 9 70 12 89 18 98 2 4 1 14 -3 21 -5 7 -5 28 -1 47 4 18 6 35 3 37 -2 3 -6
46 -8 97 -3 50 -7 95 -10 100 -2 4 -7 25 -11 46 -21 144 -133 379 -249 524
-45 56 -185 188 -227 215 -9 6 -40 26 -69 46 -114 77 -267 139 -427 173 -85
18 -141 23 -255 23 -80 0 -147 -1 -149 -2z"/>
</g>
</svg>
